<svg xmlns="http://www.w3.org/2000/svg" width="512" height="512" viewBox="0 0 369.982 369.982"><path d="M314.821 47.893c-34.797-28.139-80.904-43.636-129.83-43.636S89.958 19.754 55.161 47.894C19.59 76.661 0 115.142 0 156.249c0 41.108 19.59 79.591 55.161 108.356 34.797 28.141 80.904 43.639 129.83 43.639 4.981 0 10-.166 14.995-.496l31.509 51.959a12.513 12.513 0 0 0 10.399 6.018c.097.002.191.002.29.002 4.155 0 8.051-2.068 10.376-5.529l66.711-99.326c32.727-28.33 50.711-65.371 50.711-104.621 0-41.11-19.589-79.591-55.161-108.358zm-13.917 195.78l-58.183 86.332-25.372-41.838a12.5 12.5 0 0 0-11.948-5.956 203.335 203.335 0 0 1-20.412 1.029c-88.22 0-159.991-56.97-159.991-126.994 0-70.023 71.771-126.992 159.991-126.992 88.22 0 159.991 56.969 159.991 126.992.002 32.639-15.652 63.686-44.076 87.427z" fill="#FFF"/></svg>