<svg width="28" height="35" viewBox="0 0 28 35" xmlns="http://www.w3.org/2000/svg">
  <g transform="translate(-5 -3)" fill="none" fill-rule="evenodd">
    <g transform="rotate(35 10.9142026 37.94377141)" fill-rule="nonzero">
      <path d="M13.6198575 6.54649451v1.08467524L6.78225393 15.8898338 4.99394776 7.08837265 6.78225393 0C10.558269 0 13.6198575 2.93124219 13.6198575 6.54649451z" fill="#FF5A55"/>
      <path fill="#51A978" d="M13.6198575 7.71791927v8.83446263l-6.80992874 8.4173569V14.3902067z"/>
      <path d="M13.6198575 16.7978243v5.1260573c0 3.6603398-2.2530615 4.9665683-6.80992874 9.4017907v-7.8997092l6.80992874-6.6281388z" fill="#3AC099"/>
      <path d="M6.80992876 0v7.10229622c-1.34086969 0-2.5888132.39285837-3.631962 1.0696183V3.58974337C3.17796676 1.60749666 4.80343744 0 6.80992876 0z" fill="#FFA3A9"/>
      <path d="M12.0573469 28.8051167c.2689695.2695744.2671903.7040424-.004332.9710055-.0268428.0266503-2.70245821 2.6598777-4.75364994 4.696355l-.4894362.4851571v-1.9420878c1.96478424-1.9480783 4.24433314-4.1906917 4.26939674-4.2147307.2715222-.2670399.7091293-.2653503.9780214.0043009z" fill="#51A978"/>
      <path d="M9.78097665 34.7111792c.27721195.2749754.27546345.7195412-.00270218.9935735-.79165953.7784028-1.67209364 1.6454514-2.46550163 2.4308484l-.50284408-1.4907925c.65305354-.6448051 1.33710269-1.3186873 1.9661545-1.9363013.27808621-.2740323.72855566-.2731679 1.00489339.0026719z" fill="#3AC099"/>
      <g transform="translate(0 7.263924)" fill="#51E9D3">
        <path d="M6.80992876 26.1113512v1.9662184l-.50100487-.4911075c-2.09975443-2.0618583-4.83861276-4.7278037-4.86601084-4.7547073-.27794012-.270358-.27976138-.7101464-.00443438-.9830703.27532701-.2729239.7231986-.2747123 1.00113872-.0043544.02565601.0242599 2.35908602 2.2946601 4.37031137 4.2670211zM3.10532752 1.12769661C1.25967845 2.31417683.0407012 4.36297212.0407012 6.69168934v7.84488996c0 3.6707874 2.23959553 4.9807443 6.76922756 9.428626V.04369892c-1.36768708 0-2.64058947.3981112-3.70460124 1.08399769z"/>
      </g>
      <path d="M6.58293114 39.9515821c-.3760957 0-.68099288-.3132808-.68099288-.6997179V2.51569886c0-.38643705.30489718-.69971786.68099288-.69971786.3760957 0 .68099288.31328081.68099288.69971786V39.2518642c0 .3864371-.30489718.6997179-.68099288.6997179z" fill="#80086E"/>
    </g>
    <path d="M0 3h36v36H0z"/>
  </g>
</svg>