<svg xmlns="http://www.w3.org/2000/svg" viewBox="0 0 512 512" width="512" height="512">
  <path d="M128 174.829c-46.48 0-84.293 37.813-84.293 84.293S81.52 343.415 128 343.415s84.293-37.813 84.293-84.293S174.48 174.829 128 174.829zm0 131.122c-25.825 0-46.829-21.005-46.829-46.829s21.005-46.829 46.829-46.829 46.829 21.005 46.829 46.829-21.004 46.829-46.829 46.829zM384 0c-46.48 0-84.293 37.813-84.293 84.293 0 46.48 37.813 84.293 84.293 84.293s84.293-37.813 84.293-84.293C468.293 37.813 430.48 0 384 0zm0 131.122c-25.825 0-46.829-21.004-46.829-46.829S358.176 37.464 384 37.464s46.829 21.004 46.829 46.829c0 25.824-21.004 46.829-46.829 46.829zM384 343.415c-46.48 0-84.293 37.813-84.293 84.293S337.52 512 384 512s84.293-37.813 84.293-84.293S430.48 343.415 384 343.415zm0 131.122c-25.825 0-46.829-21.004-46.829-46.829s21.005-46.829 46.829-46.829 46.829 21.004 46.829 46.829c0 25.824-21.004 46.829-46.829 46.829z" fill="#FFF"/>
  <path fill="#FFF" d="M170.2875231 210.3301817l157.3471845-101.7687935 20.3466984 31.4585208-157.3471845 101.7687935zM170.2383304 309.8150712l20.3948572-31.4239644 152.980344 99.287672-20.3948572 31.4239644z"/>
</svg>