<svg xmlns="http://www.w3.org/2000/svg" viewBox="0 0 498.018 498.018" width="512" height="512">
  <path d="M293.502 452.25H76.564V141.781h33.23v-45.76H68.128c-20.125 0-36.49 16.363-36.49 36.479v329.03c0 20.149 16.332 36.488 36.481 36.488h233.828c20.149 0 36.479-16.332 36.479-36.488v-9.733h-44.925v.453z" fill="#FFF"/>
  <path d="M460.099 68.342L398.033 6.265C393.979 2.213 388.589 0 382.884 0H196.081c-20.125 0-36.49 16.364-36.49 36.488V365.51c0 20.15 16.332 36.49 36.49 36.49H429.9c20.148 0 36.48-16.332 36.48-36.49V83.49c0-5.722-2.227-11.105-6.281-15.148zm-38.644 287.896H204.51V45.769h150.856v40.136c0 14.305 11.631 25.944 25.936 25.944h40.153v244.389z" fill="#FFF"/>
</svg>