<?xml version="1.0" encoding="iso-8859-1"?>
<!-- Generator: Adobe Illustrator 18.0.0, SVG Export Plug-In . SVG Version: 6.00 Build 0)  -->
<!DOCTYPE svg PUBLIC "-//W3C//DTD SVG 1.1//EN" "http://www.w3.org/Graphics/SVG/1.1/DTD/svg11.dtd">
<svg xmlns="http://www.w3.org/2000/svg" xmlns:xlink="http://www.w3.org/1999/xlink" version="1.1" id="Capa_1" x="0px" y="0px" viewBox="0 0 498.018 498.018" style="enable-background:new 0 0 498.018 498.018;" xml:space="preserve" width="512px" height="512px">
<g id="XMLID_62_">
	<path id="XMLID_66_" d="M293.502,452.25c-134.851,0-78.123,0-216.938,0V141.781h33.23v-45.76H68.128   c-20.125,0-36.49,16.363-36.49,36.479v329.03c0,20.149,16.332,36.488,36.481,36.488c49.845,0,143.392,0,233.828,0   c20.149,0,36.479-16.332,36.479-36.488c0-3.421,0-6.5,0-9.733h-44.925V452.25z" fill="#FFFFFF"/>
	<path id="XMLID_63_" d="M460.099,68.342L398.033,6.265C393.979,2.213,388.589,0,382.884,0H196.081   c-20.125,0-36.49,16.364-36.49,36.488V365.51c0,20.15,16.332,36.49,36.49,36.49c49.836,0,143.384,0,233.819,0   c20.148,0,36.48-16.332,36.48-36.49c0-211.645,0-64.928,0-282.02C466.38,77.768,464.153,72.385,460.099,68.342z M421.455,356.238   c-134.859,0-78.124,0-216.945,0V45.769h150.856v40.136c0,14.305,11.631,25.944,25.936,25.944h40.153V356.238z" fill="#FFFFFF"/>
</g>
<g>
</g>
<g>
</g>
<g>
</g>
<g>
</g>
<g>
</g>
<g>
</g>
<g>
</g>
<g>
</g>
<g>
</g>
<g>
</g>
<g>
</g>
<g>
</g>
<g>
</g>
<g>
</g>
<g>
</g>
</svg>
