<svg xmlns="http://www.w3.org/2000/svg" width="512" height="512" viewBox="0 0 96.124 96.123">
  <path d="M72.089.02L59.624 0C45.62 0 36.57 9.285 36.57 23.656v10.907H24.037c-1.083 0-1.96.878-1.96 1.961v15.803c0 1.083.878 1.96 1.96 1.96H36.57v39.876c0 1.083.877 1.96 1.96 1.96h16.352c1.083 0 1.96-.878 1.96-1.96V54.287h14.654c1.083 0 1.96-.877 1.96-1.96l.006-15.803c0-.52-.207-1.018-.574-1.386-.367-.368-.867-.575-1.387-.575H56.842v-9.246c0-4.444 1.059-6.7 6.848-6.7l8.397-.003c1.082 0 1.959-.878 1.959-1.96V1.98c0-1.081-.876-1.958-1.957-1.96z" fill="#FFF"/>
</svg>