<svg width="22" height="42" viewBox="0 0 22 42" xmlns="http://www.w3.org/2000/svg"><g id="Welcome" fill="none" fill-rule="evenodd"><g id="Group-2" fill="#FFF" fill-rule="nonzero"><path d="M.67822371 22.2466386h4.60878427v18.8495699c0 .3721765.30351312.673703.67814159.673703h7.81439523c.3746285 0 .6781416-.3015265.6781416-.673703V22.3354812h5.2982583c.3444907 0 .634372-.2568197.6737072-.5967713l.8046875-6.9394345c.0220901-.1909015-.0387604-.3821294-.1673593-.5253871-.128681-.1433394-.3128747-.2254107-.5061836-.2254107h-6.1027816V9.69845133c0-1.31126521.7106608-1.97623894 2.1126024-1.97623894h3.9901792c.3746284 0 .6781416-.30168971.6781416-.67370299V.67867948c0-.37217644-.3035132-.67370299-.6781416-.67370299h-5.4991223C15.0229139.00310011 14.9367707 0 14.8098142 0c-.9541448 0-4.270699.18608822-6.89055258 2.58043418C5.01650684 5.23380254 5.42004133 8.41068169 5.51644945 8.9615224v5.086792H.67814159C.30351312 14.0483144 0 14.349841 0 14.7220174v6.8508366c.00008212.3720948.30359524.6737846.67822371.6737846z" id="Shape"/></g></g></svg>