<svg width="40" height="40" viewBox="0 0 40 40" xmlns="http://www.w3.org/2000/svg"><title>logo-instagram</title><g fill="none" fill-rule="evenodd"><rect/><path d="M27.5 5c1.988 0 3.872.787 5.297 2.203A7.433 7.433 0 0 1 35 12.5v15a7.488 7.488 0 0 1-2.203 5.297A7.433 7.433 0 0 1 27.5 35h-15a7.488 7.488 0 0 1-5.297-2.203A7.433 7.433 0 0 1 5 27.5v-15c0-1.988.787-3.872 2.203-5.297A7.433 7.433 0 0 1 12.5 5h15zm0-3h-15C6.725 2 2 6.725 2 12.5v15C2 33.275 6.725 38 12.5 38h15C33.275 38 38 33.275 38 27.5v-15C38 6.725 33.275 2 27.5 2z" fill="#000" fill-rule="nonzero"/><path d="M29.75 12.5a2.245 2.245 0 0 1-2.25-2.25 2.25 2.25 0 1 1 2.25 2.25zM20 14c3.31 0 6 2.69 6 6s-2.69 6-6 6-6-2.69-6-6 2.69-6 6-6zm0-3c-4.969 0-9 4.031-9 9s4.031 9 9 9 9-4.031 9-9-4.031-9-9-9z" fill="#000" fill-rule="nonzero"/></g></svg>