<svg width="40" height="40" viewBox="0 0 40 40" xmlns="http://www.w3.org/2000/svg"><title>logo-linkedin</title><g fill="none" fill-rule="evenodd"><rect/><path d="M35.121 2H5.076C3.435 2 2 3.182 2 4.804v30.11C2 36.547 3.435 38 5.076 38h30.036C36.762 38 38 36.537 38 34.915V4.804C38.01 3.182 36.762 2 35.12 2zM13.16 32.008H8.002V15.972h5.157v16.036zm-2.4-18.474h-.038c-1.65 0-2.72-1.228-2.72-2.766 0-1.566 1.098-2.766 2.786-2.766s2.72 1.19 2.757 2.766c0 1.538-1.07 2.766-2.785 2.766zm21.249 18.474H26.85V23.24c0-2.1-.75-3.535-2.616-3.535-1.425 0-2.27.965-2.645 1.903-.14.338-.178.797-.178 1.266v9.134h-5.157V15.972h5.157v2.232c.75-1.069 1.923-2.607 4.651-2.607 3.386 0 5.946 2.232 5.946 7.043v9.368z" fill="#000" fill-rule="nonzero"/></g></svg>