<svg width="40" height="40" viewBox="0 0 40 40" xmlns="http://www.w3.org/2000/svg"><title>logo-twitter</title><g fill="none" fill-rule="evenodd"><rect/><path d="M38.92 8.655a15.725 15.725 0 0 1-4.467 1.23 7.805 7.805 0 0 0 3.422-4.307 15.455 15.455 0 0 1-4.94 1.888A7.768 7.768 0 0 0 27.254 5c-4.299 0-7.777 3.487-7.777 7.785 0 .61.064 1.205.2 1.775-6.467-.321-12.203-3.422-16.035-8.138A7.799 7.799 0 0 0 6.06 16.818a7.597 7.597 0 0 1-3.535-.972v.096a7.785 7.785 0 0 0 6.243 7.632 7.83 7.83 0 0 1-2.049.273c-.498 0-.988-.048-1.462-.144a7.79 7.79 0 0 0 7.27 5.407 15.595 15.595 0 0 1-11.52 3.221 21.741 21.741 0 0 0 11.906 3.519c14.324 0 22.15-11.866 22.15-22.157 0-.338-.009-.675-.025-1.005a15.833 15.833 0 0 0 3.88-4.033z" fill="#000" fill-rule="nonzero"/></g></svg>